<svg xmlns="http://www.w3.org/2000/svg" width="60" height="40" fill="none" viewBox="0 0 60 40">
    <g clip-path="url(#clip0)">
        <path fill="#000" d="M59.429 29.423L50.132 17.18l6.92-8.483H53.09l-6.815 8.107C46.328 9.181 46.328 0 46.328 0h-3.962l-.053 28.725c0 .483.159.644.634.644h2.642c.475 0 .634-.16.634-.644v-6.819l1.479-1.772 7.131 9.289h4.596zM38.35 0H34.39l-.053 28.725c0 .483.158.644.634.644h2.641c.476 0 .634-.16.634-.644.053-.537.106-28.725.106-28.725zM27.733 10.685h-7.871c-1.638 0-2.641 1.02-2.641 2.684v13.37c0 1.664 1.003 2.684 2.641 2.684h7.871c1.637 0 2.641-1.02 2.641-2.685V13.37c0-1.718-1.003-2.684-2.641-2.684zm-1.32 13.637c0 .644-.318 1.02-1.004 1.02h-3.275c-.634 0-1.004-.322-1.004-1.02v-8.698c0-.644.317-1.02 1.004-1.02h3.275c.634 0 1.003.322 1.003 1.02v8.698zM9.244 15.624v8.698c0 .644-.317 1.02-1.003 1.02H3.96V14.658h4.28c.686 0 1.003.322 1.003.966zm3.962-2.309c0-1.664-1.003-2.684-2.64-2.684H.052L0 29.315v10.04c0 .484.158.645.634.645h2.641c.476 0 .634-.161.634-.644v-10.04h6.55c1.638 0 2.642-1.02 2.642-2.685.052-1.987.105-11.866.105-13.316z"/>
    </g>
    <defs>
        <clipPath id="clip0">
            <path fill="#fff" d="M0 0H59.429V40H0z"/>
        </clipPath>
    </defs>
</svg>
