<svg xmlns="http://www.w3.org/2000/svg" width="23.991" height="16.767" viewBox="0 0 23.991 16.767">
  <path id="Path_18" data-name="Path 18" d="M183.495,870.205a3.007,3.007,0,0,0-2.088-2.088c-1.87-.5-9.4-.5-9.4-.5s-7.507-.01-9.4.5a3.007,3.007,0,0,0-2.088,2.088,32.416,32.416,0,0,0,0,11.588,3.007,3.007,0,0,0,2.088,2.088c1.868.5,9.4.5,9.4.5s7.506,0,9.4-.5a3.007,3.007,0,0,0,2.088-2.088,33.82,33.82,0,0,0,0-11.588Zm-13.886,9.4v-7.193l6.264,3.6-6.264,3.591Z" transform="translate(-160.005 -867.616)"/>
</svg>
