<svg xmlns="http://www.w3.org/2000/svg" width="24" height="24" viewBox="0 0 24 24">
  <g id="Group_1" data-name="Group 1" transform="translate(-501 -1148)">
    <path id="Path_17" data-name="Path 17" d="M84,864c-3.26,0-3.667.015-4.947.072a8.849,8.849,0,0,0-2.913.558,6.133,6.133,0,0,0-3.51,3.51,8.823,8.823,0,0,0-.558,2.913C72.012,872.333,72,872.74,72,876s.015,3.667.072,4.947a8.854,8.854,0,0,0,.558,2.913,6.133,6.133,0,0,0,3.51,3.51,8.858,8.858,0,0,0,2.913.558c1.28.06,1.687.072,4.947.072s3.667-.015,4.947-.072a8.881,8.881,0,0,0,2.913-.558,6.133,6.133,0,0,0,3.51-3.51,8.854,8.854,0,0,0,.558-2.913c.06-1.28.072-1.687.072-4.947s-.015-3.667-.072-4.947a8.875,8.875,0,0,0-.558-2.913,6.133,6.133,0,0,0-3.51-3.51,8.827,8.827,0,0,0-2.913-.558C87.667,864.012,87.26,864,84,864Zm0,2.16c3.2,0,3.585.016,4.85.071a6.613,6.613,0,0,1,2.227.415,3.949,3.949,0,0,1,2.278,2.277,6.625,6.625,0,0,1,.413,2.227c.057,1.266.07,1.646.07,4.85s-.015,3.585-.074,4.85a6.753,6.753,0,0,1-.421,2.227,3.81,3.81,0,0,1-.9,1.382,3.743,3.743,0,0,1-1.38.9,6.675,6.675,0,0,1-2.235.413c-1.274.057-1.649.07-4.859.07s-3.586-.015-4.859-.074a6.8,6.8,0,0,1-2.236-.421,3.716,3.716,0,0,1-1.379-.9,3.644,3.644,0,0,1-.9-1.38,6.81,6.81,0,0,1-.42-2.235c-.045-1.26-.061-1.649-.061-4.844s.016-3.586.061-4.861a6.8,6.8,0,0,1,.42-2.234,3.988,3.988,0,0,1,2.279-2.279,6.641,6.641,0,0,1,2.221-.421c1.275-.045,1.65-.06,4.859-.06l.045.03Zm0,3.678A6.162,6.162,0,1,0,90.162,876,6.162,6.162,0,0,0,84,869.838ZM84,880a4,4,0,1,1,4-4A4,4,0,0,1,84,880Zm7.846-10.405a1.44,1.44,0,1,1-1.44-1.439A1.441,1.441,0,0,1,91.846,869.595Z" transform="translate(429 284)"/>
  </g>
</svg>
