<svg xmlns="http://www.w3.org/2000/svg" width="24.001" height="19.507" viewBox="0 0 24.001 19.507">
  <path id="Path_4" data-name="Path 4" d="M359.954,868.569a10,10,0,0,1-2.825.775,4.958,4.958,0,0,0,2.163-2.723,10.164,10.164,0,0,1-3.127,1.184,4.919,4.919,0,0,0-8.511,3.358,5.035,5.035,0,0,0,.127,1.124,13.935,13.935,0,0,1-10.141-5.126,4.822,4.822,0,0,0-.666,2.475,4.921,4.921,0,0,0,2.188,4.1,4.9,4.9,0,0,1-2.228-.616v.061A4.923,4.923,0,0,0,340.88,878a4.965,4.965,0,0,1-2.212.085,4.937,4.937,0,0,0,4.6,3.417,9.868,9.868,0,0,1-6.1,2.1,10.442,10.442,0,0,1-1.17-.067,14.006,14.006,0,0,0,21.556-11.777c0-.209,0-.42-.015-.63a9.937,9.937,0,0,0,2.46-2.548l-.047-.02Z" transform="translate(-336 -866.246)"/>
</svg>
