<svg xmlns="http://www.w3.org/2000/svg" width="23.941" height="24" viewBox="0 0 23.941 24">
  <path id="Path_19" data-name="Path 19" d="M260.017,864a11.987,11.987,0,0,0-4.37,23.149,11.524,11.524,0,0,1,.041-3.439c.219-.937,1.406-5.957,1.406-5.957a4.337,4.337,0,0,1-.359-1.781c0-1.663.967-2.911,2.168-2.911a1.507,1.507,0,0,1,1.518,1.688,24.026,24.026,0,0,1-.992,3.992,1.739,1.739,0,0,0,1.775,2.165c2.128,0,3.768-2.245,3.768-5.487a4.731,4.731,0,0,0-5.008-4.869,5.187,5.187,0,0,0-5.409,5.2,4.668,4.668,0,0,0,.889,2.741.366.366,0,0,1,.085.345c-.09.375-.293,1.2-.334,1.363-.053.225-.172.271-.4.165-1.495-.69-2.433-2.878-2.433-4.646,0-3.776,2.748-7.252,7.92-7.252,4.158,0,7.392,2.967,7.392,6.923,0,4.135-2.607,7.462-6.233,7.462a3.237,3.237,0,0,1-2.758-1.379l-.749,2.848a13.06,13.06,0,0,1-1.5,3.146,11.988,11.988,0,1,0,3.55-23.439l.032-.026Z" transform="translate(-248.029 -864)"/>
</svg>
